<?xml version="1.0" encoding="utf-8"?>
<!-- Generator: Adobe Illustrator 19.2.0, SVG Export Plug-In . SVG Version: 6.00 Build 0)  -->
<svg version="1.1" xmlns="http://www.w3.org/2000/svg" xmlns:xlink="http://www.w3.org/1999/xlink" x="0px" y="0px"
	 viewBox="0 0 25 250" style="enable-background:new 0 0 25 250;" xml:space="preserve">
<style type="text/css">
	.st0{fill:#323232;}
	.st1{fill:#FFFFFF;}
	.st2{display:none;}
	.st3{display:inline;}
</style>
<g id="Capa_1">
	<g id="Capa_1_1_">
	</g>
	<g id="Clock_circular_outline">
		<g>
			<g>
				<path class="st0" d="M12.6,0.5c-6.6,0-12,5.4-12,12s5.4,12,12,12s12-5.4,12-12S19.2,0.5,12.6,0.5z M12.6,21.9
					c-5.2,0-9.4-4.2-9.4-9.4s4.2-9.4,9.4-9.4S22,7.3,22,12.5S17.8,21.9,12.6,21.9z"/>
				<path class="st0" d="M18.8,12.1h-5.4V5.6c0-0.5-0.4-1-1-1c-0.5,0-1,0.4-1,1v7.5c0,0.5,0.4,1,1,1h6.4c0.5,0,1-0.4,1-1
					C19.8,12.6,19.4,12.1,18.8,12.1z"/>
			</g>
		</g>
	</g>
	<g id="Three_Bars_Graph">
		<g>
			<path class="st0" d="M9.5,49.5h6v-24h-6V49.5z M0.5,49.5h6v-12h-6V49.5z M18.5,33v16.5h6V33H18.5z"/>
		</g>
		<g id="Pen_on_square_of_paper_interface_symbol">
			<g>
				<path class="st1" d="M23.9,76.2c0.9,0.9,0.9,2.3,0,3.2l-1.1,1.1l-3.2-3.2l1.1-1.1C21.6,75.3,23.1,75.3,23.9,76.2z M8,88.9
					l-1.1,4.2l4.2-1.1l10.6-10.6l-3.2-3.2L8,88.9z M18.6,86.8v9.7h-15v-15h9.7l3-3H0.6v21h21V83.8L18.6,86.8z"/>
			</g>
		</g>
		<g>
			<path class="st1" d="M18.6,110.3c0.3-0.1,0.5-0.1,0.7-0.2c0.5-0.1,1-0.2,1.5-0.2c0.4,0,0.7,0,1.1,0.1c0.9,0.3,1.5,0.9,1.9,1.8
				c0.2,0.6,0.3,1.1,0.3,1.7c0,0.8-0.1,1.6-0.3,2.3c-0.4,1.2-1.1,2.1-2.1,2.9s-2.1,1.3-3.3,1.5c-0.3,0.1-0.7,0.1-1,0.1
				c-0.1,0-0.2,0-0.2,0.1c-0.6,0.6-1.3,1-2,1.4c-0.1,0-0.1,0.1-0.1,0.2c0,0.5,0,1.1,0,1.6c0,0.1,0,0.2,0,0.3
				c-0.1,0.3-0.3,0.6-0.7,0.6h-0.1c-2.6,0-5.2,0-7.8,0c-0.1,0-0.3,0-0.4-0.1c-0.3-0.1-0.5-0.4-0.5-0.7c0-0.4,0-0.8,0-1.2
				c0-0.2,0-0.4,0-0.5s-0.1-0.2-0.2-0.2c-0.3-0.1-0.5-0.2-0.8-0.4c-1.5-0.8-2.4-2.1-2.8-3.7c-0.1-0.5-0.2-1.1-0.2-1.7
				c0-0.9,0-1.8,0-2.7c0-1.1,0-2.1,0-3.2c0-0.1,0-0.3,0-0.4c0.1-0.3,0.3-0.5,0.6-0.5c0.1,0,0.2,0,0.3,0c5.1,0,10.2,0,15.3,0h0.1
				c0.6,0,0.8,0.4,0.8,0.8C18.6,110.1,18.6,110.2,18.6,110.3z M17,116C17,116,17,115.9,17,116c-0.1,0-0.1,0-0.1,0
				c-4.5,0-9.1,0-13.6,0c0,0,0,0-0.1,0l0,0l0,0c0,0.5,0,0.9,0.1,1.4c0.2,0.7,0.6,1.4,1.1,1.9c0.3,0.4,0.7,0.7,1.2,0.9
				c0.1,0.1,0.2,0.1,0.3,0c0.2-0.1,0.4-0.1,0.5-0.1c2.4,0,4.8,0,7.3,0c0.2,0,0.4,0,0.6,0.1c0.1,0,0.2,0,0.3,0
				c0.2-0.1,0.4-0.2,0.6-0.4c0.5-0.3,0.9-0.7,1.2-1.3C16.9,117.7,17,116.9,17,116L17,116z M3.2,114.3c4.6,0,9.2,0,13.9,0
				c0-0.1,0-0.1,0-0.2c0-0.5,0-1,0-1.5s0-1.1,0-1.6c0-0.1,0-0.1,0-0.2c-0.3,0-13.7,0-13.8,0C3.2,112,3.2,113.1,3.2,114.3z
				 M18.3,118.5c0.1,0,0.1,0,0.1,0c1-0.2,1.8-0.6,2.5-1.3c0.5-0.5,0.9-1,1.2-1.7c0.3-0.7,0.4-1.5,0.3-2.2c0-0.3-0.1-0.6-0.2-0.9
				c-0.2-0.4-0.4-0.7-0.9-0.8c-0.3-0.1-0.6-0.1-0.9,0c-0.6,0.1-1.1,0.2-1.7,0.4c-0.2,0.1-0.2,0.1-0.2,0.3c0,0.5,0,1,0,1.5
				c0,0.8,0,1.6,0,2.4s-0.1,1.5-0.3,2.2C18.3,118.4,18.3,118.5,18.3,118.5z M13.3,122.3c-2.1,0-4.2,0-6.3,0c0,0.2,0,0.4,0,0.6
				c2.1,0,4.2,0,6.3,0C13.3,122.7,13.3,122.5,13.3,122.3z"/>
			<path class="st1" d="M3.3,105.5c0-0.5,0.2-0.9,0.4-1.3c0.2-0.3,0.4-0.6,0.6-0.9c0.3-0.4,0.3-0.6,0-0.9c-0.1-0.2-0.3-0.3-0.5-0.4
				c-0.3-0.2-0.4-0.6-0.2-1c0-0.1,0.1-0.1,0.1-0.2c0.2-0.3,0.5-0.3,0.8-0.2c0.2,0.1,0.4,0.2,0.6,0.3c0.5,0.4,0.8,0.9,1,1.5
				s0.1,1.1-0.3,1.6c-0.1,0.2-0.3,0.4-0.4,0.6C5.2,104.8,5,105,5,105.3c0,0.1,0,0.2,0,0.3c0.1,0.1,0.2,0.3,0.3,0.4
				c0.2,0.2,0.3,0.3,0.5,0.5c0.1,0.1,0.2,0.1,0.2,0.2c0.2,0.2,0.2,0.4,0.1,0.6s-0.2,0.3-0.3,0.5c-0.3,0.3-0.8,0.2-1.1,0
				c-0.5-0.3-0.9-0.7-1.1-1.3C3.4,106.2,3.3,105.9,3.3,105.5z"/>
			<path class="st1" d="M12.5,105.5c0-0.6,0.2-1,0.4-1.4c0.2-0.3,0.4-0.6,0.6-0.9c0.3-0.3,0.3-0.5,0-0.9c-0.1-0.2-0.3-0.3-0.5-0.4
				c-0.4-0.3-0.5-0.8-0.1-1.2c0.2-0.2,0.5-0.3,0.8-0.2c0.2,0.1,0.4,0.2,0.6,0.4c0.3,0.3,0.6,0.7,0.8,1.1c0.3,0.8,0.2,1.5-0.3,2.2
				c-0.1,0.1-0.2,0.2-0.3,0.3c-0.1,0.2-0.3,0.3-0.4,0.5c-0.1,0.3-0.1,0.5,0,0.8c0.2,0.2,0.3,0.4,0.6,0.6c0.1,0.1,0.2,0.1,0.3,0.2
				c0.2,0.2,0.3,0.5,0.1,0.8c-0.1,0.2-0.2,0.3-0.3,0.4c-0.3,0.3-0.8,0.2-1,0c-0.5-0.3-0.8-0.7-1.1-1.2
				C12.7,106.2,12.5,105.9,12.5,105.5z"/>
			<path class="st1" d="M10.8,102.9c0,0.3-0.1,0.7-0.3,1.1c-0.1,0.2-0.3,0.4-0.4,0.6c-0.2,0.2-0.3,0.4-0.4,0.6c-0.1,0.2,0,0.3,0,0.5
				c0.1,0.2,0.3,0.4,0.4,0.5c0.1,0.1,0.2,0.2,0.3,0.3c0.5,0.3,0.4,0.8,0.1,1.1c-0.3,0.4-0.8,0.4-1.2,0.1s-0.8-0.7-1-1.1
				c-0.4-0.7-0.5-1.4-0.1-2.2c0.2-0.4,0.4-0.7,0.6-1c0.1-0.1,0.2-0.2,0.2-0.3c0.2-0.2,0.2-0.4,0-0.7c-0.2-0.2-0.3-0.4-0.6-0.5
				c-0.3-0.2-0.4-0.4-0.4-0.7c0-0.3,0.2-0.5,0.5-0.7c0.2-0.1,0.3-0.1,0.5,0s0.5,0.2,0.7,0.4c0.3,0.3,0.6,0.6,0.8,1
				C10.7,102.2,10.7,102.6,10.8,102.9z"/>
		</g>
		<path class="st1" d="M24.5,162.5c0,1.6-0.3,3.1-0.9,4.6c-0.4,0.9-0.9,1.8-1.5,2.6c-1.1,1.4-2.4,2.5-3.9,3.3c-1,0.5-2,0.9-3.2,1.1
			c-1.2,0.2-2.3,0.3-3.5,0.2c-1-0.1-2-0.3-3-0.6c-0.8-0.3-1.5-0.6-2.2-1c-1.2-0.7-2.2-1.6-3.1-2.7c-1.1-1.3-1.9-2.8-2.3-4.4
			c-0.2-0.7-0.3-1.4-0.3-2.2c0-0.5,0-1,0-1.5c0-1.5,0.4-3,1-4.4c0.5-1.2,1.3-2.3,2.2-3.3s2-1.8,3.2-2.5c1-0.5,2.1-0.9,3.2-1.1
			c0.8-0.1,1.5-0.2,2.3-0.2c1.5,0,3.1,0.3,4.5,0.8c1.2,0.5,2.3,1.1,3.3,2c0.8,0.7,1.5,1.4,2.1,2.3c0.8,1.1,1.4,2.3,1.7,3.6
			c0.2,0.8,0.3,1.7,0.4,2.5C24.5,162,24.5,162.3,24.5,162.5z M8.8,162.5c0,0.1,0,0.2,0,0.3c0,0.5,0.2,1,0.5,1.5
			c0.2,0.4,0.5,0.7,0.9,1c0.3,0.3,0.6,0.5,1,0.6c0.6,0.2,1.3,0.3,2,0.2c1.1-0.2,1.9-0.7,2.5-1.6c0.5-0.8,0.7-1.7,0.5-2.6
			c-0.1-0.8-0.5-1.5-1-2c-0.3-0.3-0.7-0.6-1.1-0.8c-0.5-0.2-1.1-0.3-1.7-0.3c-0.7,0-1.4,0.2-2,0.6c-0.2,0.2-0.5,0.4-0.7,0.6
			c-0.3,0.3-0.4,0.6-0.6,0.9C8.9,161.5,8.8,162,8.8,162.5z M22.7,166.7C22.7,166.7,22.7,166.6,22.7,166.7c-0.1,0-0.1,0.1-0.1,0.2
			c-0.4,0.8-0.9,1.5-1.5,2.1c-1,1-2.1,1.9-3.4,2.5c-1.1,0.5-2.3,0.9-3.5,1c-0.8,0.1-1.6,0.1-2.4,0.1c-0.5,0-1.1-0.1-1.6-0.2
			c-1.4-0.3-2.8-0.8-4-1.6c-1.6-1-2.8-2.3-3.7-4c0,0,0-0.1-0.1-0.1c0,0.1,0,0.1,0.1,0.2c0.3,0.8,0.8,1.5,1.3,2.2
			c0.9,1.2,2,2.1,3.2,2.9c1.6,1,3.4,1.5,5.3,1.6c0.6,0,1.1,0,1.7-0.1c0.7-0.1,1.5-0.3,2.2-0.5c1.5-0.5,2.9-1.4,4.1-2.5
			c1-0.9,1.8-2,2.4-3.3C22.6,167,22.6,166.8,22.7,166.7z M21.3,166.1C21.3,166.1,21.2,166.1,21.3,166.1
			C21.2,166.1,21.2,166.1,21.3,166.1c-0.1,0.1-0.1,0.1-0.1,0.2c-0.6,1.1-1.5,2.1-2.5,2.8c-1.6,1.2-3.4,1.9-5.4,2
			c-0.9,0.1-1.9,0-2.8-0.2c-1.1-0.2-2.1-0.6-3.1-1.1c-0.8-0.5-1.6-1-2.2-1.7c-0.5-0.6-1-1.2-1.3-1.8l-0.1-0.1c0,0.1,0,0.1,0,0.1
			c0.2,0.6,0.5,1.1,0.9,1.6c0.8,1.1,1.8,2.1,3,2.8c1.4,0.9,3,1.3,4.6,1.3c0.4,0,0.9,0,1.3-0.1c0.8-0.1,1.5-0.2,2.2-0.5
			c1.2-0.4,2.3-1.1,3.3-2c0.9-0.8,1.6-1.8,2.1-2.9C21.2,166.4,21.2,166.2,21.3,166.1z M5.1,165.6L5.1,165.6c0,0.1,0,0.2,0.1,0.2
			c0.2,0.5,0.5,0.9,0.8,1.3c0.9,1.2,2.1,2.1,3.4,2.7c0.7,0.3,1.4,0.5,2.1,0.6c0.5,0.1,1.1,0.1,1.6,0c0.6-0.1,1.1-0.2,1.7-0.3
			c1.3-0.4,2.4-1.2,3.4-2.1c0.7-0.7,1.2-1.4,1.6-2.3c0-0.1,0-0.1,0.1-0.2l0,0c0,0.1-0.1,0.1-0.1,0.2c-0.8,1.3-1.8,2.3-3.1,3
			c-1.2,0.6-2.4,1-3.7,1c-0.6,0-1.3,0-1.9-0.1c-1.1-0.2-2.2-0.6-3.2-1.2c-1.1-0.7-2-1.6-2.7-2.7C5.2,165.7,5.2,165.6,5.1,165.6z
			 M18.6,165.2c-0.1,0.1-0.1,0.2-0.2,0.3c-0.5,0.9-1.3,1.6-2.1,2.1c-1,0.6-2.2,0.9-3.3,1c-0.7,0-1.5,0-2.2-0.2s-1.5-0.4-2.1-0.8
			c-0.9-0.6-1.6-1.3-2.2-2.2c0,0,0-0.1-0.1-0.1c0.7,1.8,3.1,4.1,6.3,3.9C15.7,169.1,18,167,18.6,165.2z M7.5,164.6
			C7.4,164.6,7.4,164.6,7.5,164.6c0,0.1,0,0.2,0.1,0.3c0.6,1.2,1.5,2,2.6,2.5c1,0.5,2,0.6,3,0.4c1-0.1,1.9-0.5,2.7-1.1
			c0.7-0.5,1.2-1.1,1.6-1.9c0-0.1,0-0.1,0.1-0.2l0,0c-0.7,1.2-1.8,2-3.1,2.4s-2.6,0.5-3.9,0C9.2,166.6,8.2,165.8,7.5,164.6z"/>
		<path class="st1" d="M21.1,141.6c0.9,1.6,1.7,3.3,2.6,4.9c-0.1,0-0.1,0-0.2,0c-1.4-0.5-2.8-1-4.3-1.5c-1.2-0.4-2.3-0.8-3.5-1.3
			c-0.1,0-0.1,0-0.2,0c-0.6,0.1-1.1,0.2-1.7,0.2c-0.6,0-1.2,0.1-1.8,0c-0.5,0-1.1-0.1-1.6-0.1c-0.8-0.1-1.6-0.2-2.4-0.4
			c-1.3-0.3-2.5-0.8-3.7-1.5c-0.8-0.5-1.5-1-2.1-1.7c-0.6-0.6-1.1-1.3-1.4-2.1c-0.2-0.6-0.3-1.2-0.3-1.8c0-0.7,0.1-1.4,0.4-2
			s0.6-1.2,1.1-1.7c0.6-0.7,1.3-1.2,2.1-1.7c1-0.7,2.1-1.2,3.3-1.5c0.7-0.2,1.5-0.4,2.3-0.5c0.7-0.1,1.4-0.2,2-0.2c0.5,0,1,0,1.5,0
			c0.6,0,1.2,0.1,1.8,0.1c0.9,0.1,1.8,0.3,2.7,0.5c1.2,0.4,2.4,0.9,3.5,1.6c0.6,0.4,1.1,0.8,1.6,1.3c0.7,0.7,1.3,1.6,1.6,2.6
			c0.3,1,0.3,2,0,3c-0.2,0.7-0.5,1.3-1,1.8c-0.5,0.7-1.2,1.3-1.9,1.8C21.3,141.4,21.2,141.5,21.1,141.6z M19.3,142.9L19.3,142.9
			c0-0.1,0-0.1-0.1-0.1c-0.2-0.3-0.4-0.5-0.6-0.8c-0.2-0.2-0.3-0.5-0.2-0.8c0-0.4,0.2-0.6,0.6-0.8c0.6-0.3,1.2-0.7,1.7-1.1
			c0.5-0.4,1-0.9,1.3-1.5c0.2-0.4,0.4-0.9,0.4-1.4c0-0.6-0.1-1.2-0.4-1.8s-0.7-1-1.2-1.4c-1-0.8-2.1-1.3-3.2-1.7
			c-1.3-0.5-2.7-0.7-4.1-0.7c-1.2,0-2.3,0-3.5,0.2s-2.3,0.5-3.4,1c-0.8,0.4-1.6,0.8-2.3,1.4c-0.5,0.4-0.9,0.9-1.1,1.4
			c-0.3,0.7-0.4,1.5-0.2,2.2c0.2,0.6,0.5,1.2,1,1.6c0.5,0.5,1,0.9,1.6,1.3c0.7,0.4,1.5,0.8,2.3,1c1.3,0.4,2.7,0.6,4,0.7
			c0.6,0,1.2,0,1.8,0s1.2-0.1,1.8-0.2c0.1,0,0.3-0.1,0.4-0.1c0.2,0,0.4,0,0.7,0.1c0.9,0.4,1.8,0.9,2.7,1.3
			C19.2,142.8,19.3,142.9,19.3,142.9z"/>
		<path class="st1" d="M12,136.9c0,0.4,0,0.7,0,1.1c-0.2,0-0.4-0.1-0.6-0.1c-0.2-0.1-0.3-0.3-0.3-0.4c-0.6,0-1.2,0-1.8,0
			c0,0.1,0,0.1,0,0.3s0.1,0.4,0.3,0.6c0.2,0.2,0.5,0.4,0.8,0.5c0.4,0.1,0.7,0.2,1.1,0.2c0.1,0,0.2,0,0.3,0h0.1c0,0.1,0,0.3,0,0.4H12
			c0.2,0,0.4,0,0.7,0c0.1,0,0.1,0,0.1-0.1s0-0.2,0-0.3s0-0.1,0.1-0.1c0.4-0.1,0.9-0.1,1.3-0.3c0.4-0.1,0.8-0.4,1-0.7
			s0.2-0.6,0.2-0.9c-0.1-0.5-0.5-0.9-1.1-1.1c-0.4-0.1-0.9-0.3-1.4-0.4c-0.2,0-0.2,0-0.2-0.1c0-0.4,0-0.7,0-1c0-0.1,0-0.1,0-0.1
			c0.6,0.1,0.9,0.4,0.9,0.8c0.1,0,1.6,0,1.9,0c0,0,0,0,0-0.1c0-0.3-0.1-0.5-0.3-0.8c-0.3-0.4-0.7-0.7-1.2-0.8
			c-0.4-0.1-0.8-0.1-1.2-0.2h-0.1c0-0.1,0-0.1,0-0.1c0-0.1,0-0.4,0-0.5s0-0.1,0-0.1c-0.3,0-0.6,0-0.9,0c0,0.1,0,0.2,0,0.4
			s0,0.2,0,0.4c-0.1,0-0.3,0-0.4,0c-0.4,0-0.9,0.1-1.3,0.2c-0.7,0.2-1.1,0.7-1.2,1.2c0,0.2,0,0.5,0,0.7c0.1,0.3,0.4,0.5,0.7,0.7
			c0.4,0.2,0.8,0.4,1.2,0.4C11.4,136.7,11.7,136.8,12,136.9z M12,134.3c0,0.1,0,0.2,0,0.3s0,0.2,0,0.3s0,0.2,0,0.3s0,0.1,0,0.3
			c-0.3-0.1-0.5-0.1-0.7-0.2s-0.3-0.4-0.2-0.6C11.3,134.4,11.7,134.3,12,134.3z M13,136.9c0.2,0.1,0.4,0.1,0.5,0.1
			c0.3,0.1,0.3,0.4,0.1,0.7c-0.2,0.1-0.4,0.1-0.7,0.1C13,137.8,13,137,13,136.9z"/>
	</g>
	<g id="Black_bubble_speech">
		<g>
			<g id="messenger">
				<path class="st0" d="M22.1,50.5H2.9c-1.3,0-2.4,1.1-2.4,2.4v21.6l4.8-4.8h16.8c1.3,0,2.4-1.1,2.4-2.4V52.9
					C24.5,51.6,23.4,50.5,22.1,50.5z"/>
			</g>
		</g>
	</g>
	<g id="Facebook_logo" class="st2">
		<g class="st3">
			<path class="st1" d="M18.5,200.5h-3.1c-3.5,0-5.8,2.3-5.8,5.9v2.7H6.5c-0.3,0-0.5,0.2-0.5,0.5v3.9c0,0.3,0.2,0.5,0.5,0.5h3.1v10
				c0,0.3,0.2,0.5,0.5,0.5h4.1c0.3,0,0.5-0.2,0.5-0.5v-10h3.7c0.3,0,0.5-0.2,0.5-0.5v-3.9c0-0.1-0.1-0.3-0.1-0.3
				c-0.1-0.1-0.2-0.1-0.3-0.1h-3.7v-2.3c0-1.1,0.3-1.7,1.7-1.7h2.1c0.3,0,0.5-0.2,0.5-0.5V201C19,200.7,18.8,200.5,18.5,200.5z"/>
		</g>
	</g>
	<g id="Twitter_Logo_Silhouette">
		<g>
			<g>
				<path class="st1" d="M24.5,230.1c-0.9,0.4-1.8,0.7-2.8,0.8c1-0.6,1.8-1.6,2.2-2.7c-1,0.6-2,1-3.1,1.2c-0.9-1-2.2-1.6-3.6-1.6
					c-2.7,0-4.9,2.2-4.9,4.9c0,0.4,0,0.8,0.1,1.1c-4.1-0.2-7.7-2.2-10.1-5.1c-0.4,0.7-0.7,1.6-0.7,2.5c0,1.7,0.9,3.2,2.2,4.1
					c-0.8,0-1.6-0.2-2.2-0.6v0.1c0,2.4,1.7,4.4,3.9,4.8c-0.4,0.1-0.8,0.2-1.3,0.2c-0.3,0-0.6,0-0.9-0.1c0.6,2,2.4,3.4,4.6,3.4
					c-1.7,1.3-3.8,2.1-6.1,2.1c-0.4,0-0.8,0-1.2-0.1c2.2,1.4,4.8,2.2,7.5,2.2c9.1,0,14-7.5,14-14v-0.6C23,231.9,23.8,231,24.5,230.1
					z"/>
			</g>
		</g>
	</g>
	<g id="Interview_Microphone">
		<g>
			<g>
				<path class="st1" d="M21.2,177.9c-2.3-0.5-4.6,0.7-5.6,2.7l4.6,6.9c2.2-0.1,4.2-1.6,4.7-3.8C25.4,181.1,23.8,178.5,21.2,177.9z"
					/>
				<path class="st1" d="M7,188.4c-2.1,1.7-4.1,3.5-6.2,5.2c-0.8,0.7-1.1,1.6-0.5,2.6c0.6,0.9,1.5,1.2,2.5,0.7
					c2.4-1.4,4.8-2.7,7.3-4.1l-3-4.5C7.1,188.3,7,188.4,7,188.4z"/>
				<polygon class="st1" points="18.7,187.4 15.2,182.2 13.2,179.1 5.7,184.1 8,187.6 11.1,192.2 13.2,195.3 20.6,190.3 				"/>
			</g>
		</g>
	</g>
</g>
<g id="Play_Button">
	<path class="st1" d="M12.5,200C5.6,200,0,205.6,0,212.5S5.6,225,12.5,225S25,219.4,25,212.5S19.4,200,12.5,200z M16.8,213.2
		l-6.2,3.9c-0.1,0.1-0.3,0.1-0.4,0.1c-0.1,0-0.3,0-0.4-0.1c-0.2-0.1-0.4-0.4-0.4-0.7v-7.8c0-0.3,0.2-0.5,0.4-0.7
		c0.2-0.1,0.6-0.1,0.8,0l6.2,3.9c0.2,0.1,0.4,0.4,0.4,0.7S17.1,213,16.8,213.2z"/>
</g>
</svg>
