<?xml version="1.0" encoding="utf-8"?>
<!-- Generator: Adobe Illustrator 19.2.0, SVG Export Plug-In . SVG Version: 6.00 Build 0)  -->
<svg version="1.1" xmlns="http://www.w3.org/2000/svg" xmlns:xlink="http://www.w3.org/1999/xlink" x="0px" y="0px"
	 viewBox="0 0 200 200" style="enable-background:new 0 0 200 200;" xml:space="preserve">
<style type="text/css">
	.st0{fill:#2A9543;}
</style>
<g id="Capa_1">
</g>
<g id="Add_picture">
</g>
<g id="Blog">
</g>
<g id="Snowy_Mountains">
	<g>
		<g>
			<g id="Layer_5_47_">
				<g>
					<path class="st0" d="M150.8,149.1l-65.1-99c-1.3-2-3.3-3.2-5.5-3.2c-2.2,0-4.2,1.2-5.5,3.3l-61.9,98.9
						c-1.3,2.2-1.5,4.5-0.4,6.4c1.1,1.9,3.1,3,5.7,3h127.6c2.6,0,4.6-1.1,5.7-3.1C152.4,153.6,152.2,151.3,150.8,149.1z M80.3,54.8
						c0.7,0,1,0.6,1,0.6l39.4,58.7c2.5,4.6,0.8,6-4,1.3c0,0-14.3-16.6-19.6-21.5c-1.3-1.2-4.1-1.6-5.6-0.5
						c-3.9,2.7-10.8,9.4-14.8,11.9c-1.5,1-3.6,0.1-4.1-1.6c-1.4-5.9-2.6-17.9-4.1-23.8c-0.5-1.8-2.2-2.1-3.6-1
						c-0.4,0.3-1.1,0.7-1.5,1c-0.5,0.3-0.2-0.1-0.2-0.1l16.1-24.4C79.3,55.3,79.6,54.8,80.3,54.8z"/>
					<path class="st0" d="M187.2,135.3l-59.9-91.1c-1.2-1.8-3.1-2.9-5-2.9c-2,0-3.9,1.1-5.1,3l-12.5,20c0,0-0.5,0.7-0.1,1.5
						c0.4,0.9,1.5,2.5,2.2,3.3c0.5,0.6,1.1-0.4,1.1-0.4L121.5,48c0,0,0.4-0.6,0.8-0.6c0.5,0,0.8,0.6,0.8,0.6l39,57.7
						c1.1,1.6-1.8,1.6-4.4-0.4c-3.9-3.1-11.5-9.4-15.4-12.5c-1.3-1-3.7-1.4-5.1-0.5c-2.1,1.3-7.1,5.2-9.1,7.1
						c-1.1,1-0.3,1.9-0.3,1.9l27.2,41.5c0,0,0.8,1.3,2,1.3c6.3,0,25.4,0,25.4,0c2.4,0,4.3-1,5.2-2.8
						C188.7,139.5,188.5,137.3,187.2,135.3z"/>
				</g>
			</g>
		</g>
	</g>
</g>
<g id="Play_Button">
</g>
</svg>
