<?xml version="1.0" encoding="utf-8"?>
<!-- Generator: Adobe Illustrator 19.2.0, SVG Export Plug-In . SVG Version: 6.00 Build 0)  -->
<svg version="1.1" xmlns="http://www.w3.org/2000/svg" xmlns:xlink="http://www.w3.org/1999/xlink" x="0px" y="0px"
	 viewBox="0 0 200 200" style="enable-background:new 0 0 200 200;" xml:space="preserve">
<style type="text/css">
	.st0{fill:#2A9543;}
</style>
<g id="Capa_1">
	<g id="Capa_1_1_">
	</g>
	<g id="Add_picture">
	</g>
	<g id="Blog">
	</g>
	<g id="Snowy_Mountains">
	</g>
</g>
<g id="Checkbox_Pen_Outline">
	<g>
		<g>
			<g>
				<path class="st0" d="M182.6,34.9l-15.2-15.2c-1.6-1.6-3.6-2.4-5.7-2.4c-2.1,0-4.1,0.8-5.7,2.4l-12.2,12.1l26.6,26.5l12.2-12.1
					C185.8,43.1,185.8,38,182.6,34.9z"/>
				<polygon class="st0" points="64.9,110.6 91.5,137.2 164.8,64.1 138.2,37.5 				"/>
				<polygon class="st0" points="59.2,116.3 53.5,148.5 85.8,142.9 				"/>
				<path class="st0" d="M132.7,162.9H32.5V62.6h70.8l17.4-17.4H26.3c-6.2,0-11.3,5.1-11.3,11.3V169c0,6.2,5.1,11.3,11.3,11.3h112.6
					c6.2,0,11.2-5.1,11.2-11.3V88.6l-17.4,17.4L132.7,162.9L132.7,162.9z"/>
			</g>
		</g>
	</g>
</g>
</svg>
