<?xml version="1.0" encoding="utf-8"?>
<!-- Generator: Adobe Illustrator 19.2.0, SVG Export Plug-In . SVG Version: 6.00 Build 0)  -->
<svg version="1.1" xmlns="http://www.w3.org/2000/svg" xmlns:xlink="http://www.w3.org/1999/xlink" x="0px" y="0px"
	 viewBox="0 0 200 200" style="enable-background:new 0 0 200 200;" xml:space="preserve">
<style type="text/css">
	.st0{fill:#2A9543;}
</style>
<g id="Capa_1">
</g>
<g id="Add_picture">
	<g>
		<path class="st0" d="M47.6,50.1c-5.6,0-10.2,4.6-10.2,10.3c0,5.7,4.6,10.3,10.2,10.3c5.7,0,10.3-4.6,10.3-10.3
			C57.9,54.7,53.3,50.1,47.6,50.1z"/>
		<path class="st0" d="M122.9,67c2.2,1,4.9,1.5,7.9,1.5c7.6,0,13.7-3.7,13.7-8.3c0-4.6-6.1-8.3-13.7-8.3c-2.8,0-5.5,0.5-7.7,1.4
			c-0.9-0.9-2.1-1.4-3.4-1.4h-2c-2.5,0-4.5,1.9-4.8,4.4c-6.1,0.6-10.7,2.9-10.7,5.5c0,3.2,6.4,5.7,14.3,5.7
			C118.8,67.6,121,67.3,122.9,67z"/>
		<path class="st0" d="M164.6,87.9v-56c0-1.7-1.4-3-3.1-3H16.4c-1.7,0-3.1,1.4-3.1,3v125.6c0,1.7,1.4,3.1,3.1,3.1h96.4
			c7.8,6.7,18,10.7,29,10.7c24.7,0,44.8-20,44.8-44.8C186.7,110,177.8,95.7,164.6,87.9z M81.9,77.5C65.3,61,49.3,125,49.3,125H27.4
			V42.7h125.8v40.5c-3.6-0.9-7.4-1.5-11.3-1.5c-18.9,0-35.1,11.8-41.6,28.4C96.7,99.8,90.9,86.6,81.9,77.5z M141.9,161.3
			c-19.3,0-34.9-15.6-34.9-34.9s15.6-34.9,34.9-34.9s34.9,15.6,34.9,34.9S161.1,161.3,141.9,161.3z"/>
		<polygon class="st0" points="147.9,102 133.1,102 133.1,119 115.7,119 115.7,133.9 133.1,133.9 133.1,151.4 147.9,151.4 
			147.9,133.9 165.1,133.9 165.1,119 147.9,119 		"/>
	</g>
</g>
<g id="Blog">
</g>
<g id="Snowy_Mountains">
</g>
<g id="Play_Button">
</g>
</svg>
