<?xml version="1.0" encoding="utf-8"?>
<!-- Generator: Adobe Illustrator 19.2.0, SVG Export Plug-In . SVG Version: 6.00 Build 0)  -->
<svg version="1.1" xmlns="http://www.w3.org/2000/svg" xmlns:xlink="http://www.w3.org/1999/xlink" x="0px" y="0px"
	 viewBox="0 0 100 100" style="enable-background:new 0 0 100 100;" xml:space="preserve">
<style type="text/css">
	.st0{fill:#666565;}
</style>
<g id="Capa_1">
</g>
<g id="Eye_close_up">
	<g>
		<path class="st0" d="M50,20.2c-20.1,0-37.4,11.8-45.4,28.9c-0.2,0.5-0.2,1.1,0,1.7c8,17.1,25.3,28.9,45.4,28.9
			s37.4-11.8,45.4-28.9c0.2-0.5,0.2-1.1,0-1.7C87.4,32.1,70.1,20.2,50,20.2z M50,70.5c-11.4,0-20.5-9.2-20.5-20.5
			c0-11.4,9.2-20.5,20.5-20.5c11.4,0,20.5,9.2,20.5,20.5S61.3,70.5,50,70.5z"/>
		<circle class="st0" cx="50" cy="50" r="13.1"/>
	</g>
</g>
</svg>
