<?xml version="1.0" encoding="utf-8"?>
<!-- Generator: Adobe Illustrator 19.2.0, SVG Export Plug-In . SVG Version: 6.00 Build 0)  -->
<svg version="1.1" id="Capa_1" xmlns="http://www.w3.org/2000/svg" xmlns:xlink="http://www.w3.org/1999/xlink" x="0px" y="0px"
	 viewBox="0 0 480 480" style="enable-background:new 0 0 480 480;" xml:space="preserve">
<style type="text/css">
	.st0{fill:#00A900;}
</style>
<g>
	<path class="st0" d="M355.5,193.8c5.4-1.5,10-2.9,14.7-4.1c9.8-2.5,19.8-4,30-3.9c7.1,0.1,14.2,0.9,21.1,3
		c18.4,5.5,30.6,17.6,37.1,35.6c4,10.9,5.2,22.2,5.2,33.7c0.1,15.5-1.7,30.8-6.5,45.6c-7.5,23.4-21.5,42.1-40.8,57
		c-19.5,15.1-41.4,24.9-65.7,29.2c-6.6,1.2-13.4,1.7-20.1,2.3c-1.9,0.2-3.4,0.7-4.8,2c-11.8,11.3-24.9,20.5-39.9,27.1
		c-2.1,0.9-2.8,2.2-2.7,4.4c0.1,10.6,0.2,21.2,0.2,31.8c0,1.9-0.1,3.9-0.6,5.7c-1.6,6.9-6.6,11-13.6,11.4c-0.8,0.1-1.7,0.1-2.5,0.1
		c-51.7,0-103.5,0-155.2-0.1c-2.6,0-5.3-0.5-7.7-1.3c-6.2-2.3-9.4-7-9.6-13.5c-0.2-7.7-0.1-15.4-0.2-23.1c0-3.6-0.2-7.2,0-10.8
		c0.1-2.5-1-3.6-3.1-4.5c-5.1-2.2-10.2-4.4-15-7.1c-29-16.8-46.7-42.1-55.2-74.2c-2.8-10.8-3.2-21.9-3.2-33
		c-0.1-17.7-0.2-35.4-0.4-53.2c-0.2-21.1-0.4-42.2-0.5-63.3c0-2.5,0.1-5.1,0.7-7.5c1.6-5.9,5.6-9.4,11.6-10.5
		c1.9-0.3,3.8-0.5,5.8-0.5c100.9,0,201.9,0,302.8,0c0.6,0,1.2,0,1.8,0c11.6,0,16,8.4,16.4,16.4C355.5,190.1,355.5,191.6,355.5,193.8
		z M323.6,306c-0.4-0.2-0.6-0.4-0.8-0.4c-0.5-0.1-1-0.2-1.4-0.2c-89.8,0-179.7,0-269.5,0c-0.5,0-0.9,0.1-1.4,0.2
		c-0.1,0-0.2,0.1-0.3,0.2c-0.1,0.1-0.2,0.2-0.4,0.5c-0.6,9,0,18.1,2.5,27c4,14.6,12,27,22.2,38.1c6.8,7.4,14.8,13,23.7,17.5
		c2.3,1.2,4.5,1.5,6.9,0.8c3.5-1.1,7.1-1.2,10.7-1.2c47.9,0,95.8,0,143.6,0c4,0,8,0,11.8,1.3c1.8,0.6,3.5,0.3,5.2-0.6
		c4.1-2.4,8.3-4.4,12.2-7.1c9.7-6.5,17.8-14.8,23.8-24.9c9-15,12.2-31.5,11.6-48.9C323.9,307.5,323.7,306.7,323.6,306z M49.2,272.7
		c91.7,0,182.8,0,274.4,0c0-1.4,0-2.6,0-3.8c-0.1-9.8-0.1-19.5-0.2-29.3c-0.1-10.6-0.2-21.2-0.3-31.8c0-1.1-0.2-2.3-0.4-3.3
		c-5.7-0.8-271-0.5-273.5,0.2C49.2,227.2,49.2,249.7,49.2,272.7z M349.1,357.1c1.1-0.1,1.8-0.2,2.4-0.3c18.9-4.3,35.8-12.6,50.1-26
		c10.1-9.4,17.8-20.5,22.8-33.5c5.4-14.2,7.3-28.9,6.6-44c-0.3-6.1-1.1-12.3-3.5-18c-3.4-8.1-8.7-14.1-17.8-15.9
		c-5.7-1.1-11.5-1.1-17.3-0.5c-11.3,1.3-22.2,4.4-32.9,8.1c-4,1.4-4,1.4-3.9,5.6c0.1,10.1,0.3,20.2,0.4,30.4
		c0.1,15.7,0.1,31.3,0.3,47c0.2,15.1-1.6,29.8-6.7,44C349.5,354.9,349.4,355.8,349.1,357.1z M250.8,430.8c-41.7,0-83,0-124.4,0
		c0,4,0,7.8,0,11.7c41.6,0,82.8,0,124.4,0C250.8,438.6,250.8,434.9,250.8,430.8z"/>
	<path class="st0" d="M51.2,98.2c0.2-9.5,3.4-18.2,7.8-26.4c3.3-6.2,7.5-11.8,11.9-17.2c5.7-7.1,5.7-10.9-0.4-17.8
		c-2.9-3.2-6.1-6.1-9.6-8.7c-6.5-4.8-8.3-12.5-4.2-19.4c0.8-1.2,1.5-2.5,2.4-3.6c4.4-5,9.6-6.4,16-4.1c4.3,1.5,8.4,3.6,11.9,6.7
		c9,8,15.8,17.4,19.1,29.2c3.2,11.6,1.5,22.5-5,32.5c-2.6,4-5.7,7.8-8.8,11.4c-3.6,4.3-7,8.6-8.3,14.2c-0.6,2.2-0.6,4.4,0.5,6.3
		c1.6,2.8,3.2,5.7,5.4,8c3,3.2,6.5,6,9.9,9c1.6,1.4,3.4,2.7,4.9,4.3c3.3,3.6,4.2,7.8,2.5,12.4c-1.4,3.6-3.4,6.9-6.5,9.4
		c-6.5,5.4-14.9,4.7-20.8,0.4c-9.1-6.7-16.8-14.8-22.4-24.8C53.6,113.4,51,106.2,51.2,98.2z"/>
	<path class="st0" d="M235,99.8c0-11.3,3.2-19.9,7.7-28.2c3.3-6.2,7.6-11.7,12.1-17.1c5.8-6.7,5.9-10.4,0.1-17
		c-2.9-3.2-6.1-6.2-9.6-8.8c-8.2-6-9.3-16.8-2.1-24.1c4.7-4.8,10.3-5.9,16.6-3.4c4.4,1.8,8.5,4,11.9,7.4
		c6.5,6.4,12.4,13.2,15.9,21.7c6.5,15.6,4.4,30.2-5.6,43.7c-1.6,2.2-3.6,4.2-5.2,6.5c-2.4,3.3-5,6.5-6.9,10.1
		c-2.7,5-2.5,10.1,0.9,15c3.1,4.4,6.9,8.1,11,11.4c1.8,1.4,3.6,2.8,5.3,4.4c4.5,4.4,5.4,9.3,2.9,15.2c-1.4,3.3-3.4,6.1-6.2,8.3
		c-6.5,5.2-15,4-20.2,0c-8.9-6.7-16.5-14.8-22-24.6C237.5,113.4,234.9,106.1,235,99.8z"/>
	<path class="st0" d="M199.6,48.2c0.1,6.9-2.3,14.2-6.4,20.8c-2.6,4.2-5.7,8-8.8,11.8c-3.1,3.8-6.2,7.7-7.8,12.5
		c-1.2,3.6-0.9,6.8,0.9,10.1c2.2,4.1,5.3,7.5,8.7,10.6c2.1,1.9,4.4,3.8,6.7,5.5c9.2,6.8,8.1,15.1,2.1,22.5
		c-6.6,8.1-16.8,7.9-23.9,2.3c-8.1-6.4-15.1-13.8-20.6-22.6c-8.8-14.1-9.3-28.5-2.6-43.4c3.2-7.2,7.3-13.8,12.3-19.9
		c1.5-1.9,3.1-3.7,4.6-5.6c3.6-4.8,3.7-8.3,0.1-13.2c-3.1-4.2-6.7-7.9-11.1-10.8c-5.2-3.4-7.6-8-7-14.1c0.7-6.3,4.3-10.8,10-13.7
		c3.4-1.7,6.8-1.3,10.2-0.1c4.8,1.7,9.3,4,13,7.7c5.9,6,11.5,12.3,15.2,20.1C197.8,34.5,199.4,40.6,199.6,48.2z"/>
</g>
</svg>
