<?xml version="1.0" encoding="utf-8"?>
<!-- Generator: Adobe Illustrator 19.2.0, SVG Export Plug-In . SVG Version: 6.00 Build 0)  -->
<svg version="1.1" id="Capa_1" xmlns="http://www.w3.org/2000/svg" xmlns:xlink="http://www.w3.org/1999/xlink" x="0px" y="0px"
	 viewBox="0 0 648 560" style="enable-background:new 0 0 648 560;" xml:space="preserve">
<style type="text/css">
	.st0{fill:#00A900;}
</style>
<path class="st0" d="M538.5,391.1c22.5,42,44.7,83.7,67.2,125.6c-1.7,0.3-2.8-0.4-4-0.8c-36.5-12.8-73-25.6-109.4-38.5
	c-30.1-10.7-60.2-21.6-90.3-32.4c-1.8-0.6-3.4-0.8-5.3-0.5c-14.2,2.3-28.4,3.9-42.8,4.9c-15.8,1.2-31.6,1.7-47.4,1.1
	c-14.1-0.5-28.2-1.5-42.2-2.7c-20.6-1.7-41-5.5-61.1-10.5c-33.1-8.3-64.6-20.6-94.1-37.8c-20.3-11.8-39.1-25.7-55.2-42.9
	c-15.1-16.1-27.3-34.2-35.3-54.9c-5.8-15.2-8.5-30.9-8.6-47.1c-0.1-18,2.8-35.4,9.4-52.1c6.5-16.3,15.7-31,27.1-44.3
	c15.3-17.8,33.7-31.9,53.3-44.6c26.2-17,54.4-29.7,84.2-38.8c19-5.8,38.3-10.3,58-13c17.4-2.4,34.8-4.5,52.3-4.7
	c12.9-0.2,25.8-0.7,38.7-0.4c15.3,0.3,30.6,1.4,45.9,3.2c23.8,2.7,47.1,7.3,70,14c32.1,9.4,62.2,23,90.2,41.3
	c14.8,9.7,28.9,20.3,41.4,32.9c18.6,18.7,32.8,40.1,40.3,65.5c7.6,25.6,8,51.4,0.2,77c-5.3,17.3-14,32.8-24.8,47.3
	c-13.8,18.6-30.6,33.9-49.4,47.3C544.2,387,541.5,389,538.5,391.1z M491.8,424.9c0.2-0.2,0.5-0.4,0.7-0.7c-0.7-1-1.5-2.1-2.2-3.1
	c-4.9-6.6-9.8-13.3-14.8-19.9c-4.7-6.2-6.6-13.2-5.7-20.9c1.1-9.5,5.7-16.6,14.3-21.1c15.3-8,30.1-16.9,43.4-28.1
	c13.3-11.2,24.9-23.9,33.1-39.5c5.7-11.1,9.4-22.8,9.8-35.2c0.5-16-3.5-31.1-11.5-45c-8.1-14.1-19.2-25.7-32-35.7
	c-24.9-19.4-52.7-33.5-82.5-43.7c-34.5-11.8-70-17.5-106.3-18.8c-29.8-1.1-59.6,0-89.2,4.8c-30,4.9-59.1,13-86.7,26
	c-21.1,9.9-41.2,21.5-58.8,37c-12,10.5-22.3,22.5-29.1,37.1c-8.6,18.6-10.2,37.9-5,57.7c4.3,16.2,13.1,29.7,24.4,41.8
	c12.3,13.1,26.6,23.5,41.9,32.7c18.4,11,37.8,19.5,58.1,26.2c33.6,11.1,68.2,16.6,103.5,18.1c15.8,0.7,31.6,0.6,47.4-0.5
	c15.6-1,31-3.1,46.3-5.7c3.4-0.6,6.7-1.3,10.1-1.8c6-0.8,11.5,0.9,16.9,3.5c23.5,11.2,47.1,22.2,70.6,33.3
	C489.6,424,490.7,424.5,491.8,424.9z"/>
<path class="st0" d="M323.2,223c0-12.6,0-25.1,0-38c5.9-0.6,10.7,1.6,14.8,5.8c4,4.2,6.4,9.4,7.1,15.5c14.6,0,28.9,0,43.4,0
	c0.8-3.2,0-6.2-0.3-9.2c-0.8-7.5-3-14.5-6.6-20.9c-4.7-8.5-11.5-14.3-19.7-18.6c-8.6-4.6-17.9-7.1-27.5-8.4
	c-2.7-0.4-5.4-0.5-8.2-0.9c-1-0.1-2-0.4-3.3-0.7c0-5.4,0-10.6,0-15.8c-1-0.3-1.7-0.5-2.3-0.5c-5.3,0-10.5-0.1-15.8,0
	c-2.6,0-2.9,0.4-2.9,3.2c-0.1,3.4,0,6.8,0,10.2c-0.1,3.1-0.1,3.2-3,3.7c-10.9,1.9-21.5,4.5-31.5,9.5c-10.7,5.3-19.3,13-24.3,24.6
	c-4.5,10.6-5.6,21.8-4.3,33.2c2.2,17.9,12,29.7,26.7,37.6c10.5,5.6,21.6,9.4,32.6,13c3.7,1.2,3.8,1.2,3.8,5.2c0,11.8,0,23.6,0,35.4
	c0,1.3-0.2,2.6-0.3,4.2c-14.3-3.6-20.7-13.3-21.4-27.8c-2.7-0.9-39.4-1.2-45.1-0.4c-0.1,0.5-0.5,1-0.5,1.6c0.5,9.6,2,18.9,6.1,27.5
	c6.5,13.3,16.6,22.4,29.3,28.4c9,4.2,18.5,6.1,28.2,7c1,0.1,2.1,0.2,3.4,0.4c0.1,1.5,0.3,2.9,0.3,4.3c0,5.8,0,11.7,0,17.5
	c0,1.3,0.2,2.6,0.3,4.1c6.8,0,13.4,0,20.5,0c0.6-4.2,0.2-8.6,0.3-12.9c0.1-4.2,0-8.5,0-13c3.4-0.3,6.4-0.7,9.5-1
	c10.5-1,20.7-3.3,30.4-8c16.8-8.2,25.7-22.3,28-41.5c1-8.4,1.1-16.7-1-25c-2.7-10.8-8.6-19.2-16.7-26c-8.8-7.4-18.9-12.1-29.4-16.1
	C337.2,227.7,330.3,225.5,323.2,223z M323,312.1c0-3.4,0-6.7,0-9.9c0-3.3,0-6.6,0-9.8c0-3.4-0.1-6.8,0-10.2c0.1-3.2-0.4-6.4,0.4-9.8
	c6.5,1.3,12.3,3.4,16.9,8.1c5.5,5.5,7,14.9,3.7,21.4C340.6,308.5,330.9,313.4,323,312.1z M301.2,219.3c-4.2-2.1-8.7-3.7-12.6-6.3
	c-6.9-4.8-8.3-16-3.1-22.1c4.2-4.9,9.8-6,15.8-6C302.2,188.4,302.2,215.6,301.2,219.3z"/>
</svg>
