<?xml version="1.0" encoding="utf-8"?>
<!-- Generator: Adobe Illustrator 19.2.0, SVG Export Plug-In . SVG Version: 6.00 Build 0)  -->
<svg version="1.1" xmlns="http://www.w3.org/2000/svg" xmlns:xlink="http://www.w3.org/1999/xlink" x="0px" y="0px"
	 viewBox="0 0 200 200" style="enable-background:new 0 0 200 200;" xml:space="preserve">
<style type="text/css">
	.st0{fill:#2A9543;}
</style>
<g id="Capa_1">
</g>
<g id="Add_picture">
</g>
<g id="Blog">
	<g>
		<rect x="45.5" y="40.9" class="st0" width="45.6" height="9.6"/>
		<path class="st0" d="M152.5,51.8c1.6,0,3.1-0.6,4.3-1.8c1.1-1.1,1.8-2.7,1.8-4.3c0-1.6-0.6-3.1-1.8-4.3c-1.1-1.1-2.7-1.8-4.3-1.8
			c-1.6,0-3.1,0.6-4.3,1.8c-1.1,1.1-1.8,2.7-1.8,4.3c0,1.6,0.6,3.1,1.8,4.3C149.4,51.1,150.9,51.8,152.5,51.8z"/>
		<path class="st0" d="M130.8,51.8c1.6,0,3.1-0.6,4.3-1.8c1.1-1.1,1.8-2.7,1.8-4.3c0-1.6-0.6-3.1-1.8-4.3c-1.1-1.1-2.7-1.8-4.3-1.8
			c-1.6,0-3.1,0.6-4.3,1.8c-1.1,1.1-1.8,2.7-1.8,4.3c0,1.6,0.6,3.1,1.8,4.3C127.7,51.1,129.2,51.8,130.8,51.8z"/>
		<path class="st0" d="M109.1,51.8c1.6,0,3.1-0.6,4.3-1.8c1.1-1.1,1.8-2.7,1.8-4.3c0-1.6-0.6-3.1-1.8-4.3c-1.1-1.1-2.7-1.8-4.3-1.8
			c-1.6,0-3.1,0.6-4.3,1.8c-1.1,1.1-1.8,2.7-1.8,4.3c0,1.6,0.6,3.1,1.8,4.3C106,51.1,107.5,51.8,109.1,51.8z"/>
		<path class="st0" d="M14.4,21v127.3h39.8V179l57.7-30.7h73.7V21H14.4z M173.5,33v25.4H26.5V33H173.5z M108.8,136.2l-42.6,22.7
			v-22.7H26.5V70.5h147.1v65.7H108.8z"/>
		<rect x="48.7" y="87.1" class="st0" width="102.6" height="9.6"/>
		<rect x="48.7" y="108.4" class="st0" width="102.6" height="9.6"/>
	</g>
</g>
<g id="Snowy_Mountains">
</g>
<g id="Play_Button">
</g>
</svg>
