<?xml version="1.0" encoding="utf-8"?>
<!-- Generator: Adobe Illustrator 19.2.0, SVG Export Plug-In . SVG Version: 6.00 Build 0)  -->
<svg version="1.1" id="Capa_1" xmlns="http://www.w3.org/2000/svg" xmlns:xlink="http://www.w3.org/1999/xlink" x="0px" y="0px"
	 viewBox="0 0 200 200" style="enable-background:new 0 0 200 200;" xml:space="preserve">
<style type="text/css">
	.st0{fill:#2A9543;}
</style>
<g id="Capa_1_1_">
</g>
<g id="Add_picture">
</g>
<g id="Blog">
</g>
<g id="Snowy_Mountains">
</g>
<g id="Play_Button">
	<path class="st0" d="M100,25.3c-41.3,0-74.7,33.4-74.7,74.7s33.5,74.7,74.7,74.7s74.7-33.4,74.7-74.7S141.3,25.3,100,25.3z
		 M125.8,104l-37.4,23.3c-0.8,0.5-1.6,0.7-2.5,0.7c-0.8,0-1.6-0.2-2.3-0.6c-1.5-0.8-2.4-2.4-2.4-4.1V76.7c0-1.7,0.9-3.3,2.4-4.1
		c1.5-0.8,3.3-0.8,4.7,0.1L125.8,96c1.4,0.9,2.2,2.4,2.2,4S127.2,103.1,125.8,104z"/>
</g>
</svg>
