<?xml version="1.0" encoding="utf-8"?>
<!-- Generator: Adobe Illustrator 19.2.0, SVG Export Plug-In . SVG Version: 6.00 Build 0)  -->
<svg version="1.1" xmlns="http://www.w3.org/2000/svg" xmlns:xlink="http://www.w3.org/1999/xlink" x="0px" y="0px"
	 viewBox="0 0 479 496" style="enable-background:new 0 0 479 496;" xml:space="preserve">
<style type="text/css">
	.st0{fill:#00A900;}
</style>
<g id="Capa_1">
</g>
<g id="Interview_Microphone">
	<g>
		<g>
			<path class="st0" d="M396.1,73.4c-41.8-9.7-84.3,12.3-101.1,49.7l84,125.7c40.6-1,76.7-29.1,85.3-69.9
				C474.2,131.7,443.7,84.4,396.1,73.4z"/>
			<path class="st0" d="M138.2,264.4c-37.6,31.7-75.5,63.1-112.5,95.4c-14.4,12.5-20.1,29.3-9.1,46.8c10.8,17.2,28,21.7,45.6,11.8
				c44.2-24.7,88.2-49.6,132.6-74.7l-54.3-81.2C139.7,263.1,139,263.7,138.2,264.4z"/>
			<polygon class="st0" points="351.1,245.1 287.8,150.3 251.1,95.5 114.8,185.9 156.8,248.7 213.2,333.1 250.5,388.9 386.8,298.4 
							"/>
		</g>
	</g>
</g>
</svg>
