<?xml version="1.0" encoding="utf-8"?>
<!-- Generator: Adobe Illustrator 19.2.0, SVG Export Plug-In . SVG Version: 6.00 Build 0)  -->
<svg version="1.1" id="Musica_Searcher" xmlns="http://www.w3.org/2000/svg" xmlns:xlink="http://www.w3.org/1999/xlink" x="0px"
	 y="0px" viewBox="0 0 100 100" style="enable-background:new 0 0 100 100;" xml:space="preserve">
<style type="text/css">
	.st0{fill:#2A9543;}
	.st1{fill:#FFFFFF;}
</style>
<rect class="st0" width="100" height="100"/>
<g id="Search">
	<path class="st1" d="M71.4,66.1l-9.8-9.8c-0.1-0.1-0.1-0.1-0.2-0.1c1.9-2.9,3-6.4,3-10.2c0-10.2-8.3-18.5-18.5-18.5
		S27.5,35.8,27.5,46c0,10.2,8.3,18.5,18.5,18.5c3.8,0,7.2-1.1,10.2-3c0,0.1,0.1,0.1,0.1,0.2l9.8,9.8c1.5,1.5,3.8,1.5,5.3,0
		C72.9,69.9,72.9,67.5,71.4,66.1z M46,58.1c-6.7,0-12.1-5.4-12.1-12.1c0-6.7,5.4-12.1,12.1-12.1c6.7,0,12.1,5.4,12.1,12.1
		S52.7,58.1,46,58.1z"/>
</g>
</svg>
