<?xml version="1.0" encoding="utf-8"?>
<!-- Generator: Adobe Illustrator 19.2.0, SVG Export Plug-In . SVG Version: 6.00 Build 0)  -->
<svg version="1.1" id="Capa_1" xmlns="http://www.w3.org/2000/svg" xmlns:xlink="http://www.w3.org/1999/xlink" x="0px" y="0px"
	 viewBox="0 0 200 200" style="enable-background:new 0 0 200 200;" xml:space="preserve">
<style type="text/css">
	.st0{fill:#00A900;}
</style>
<g id="Capa_1_1_">
</g>
<g id="Add_picture">
</g>
<g id="Blog">
</g>
<g id="Snowy_Mountains">
</g>
<g id="Play_Button">
	<path class="st0" d="M100.2,7C48.8,7,7.3,48.5,7.3,99.8s41.6,92.8,92.8,92.8S193,151.2,193,99.8S151.5,7,100.2,7z M132.2,104.8
		l-46.5,29c-1,0.6-2,0.9-3.1,0.9c-1,0-2-0.2-2.9-0.7c-1.9-1-3-3-3-5.1V70.9c0-2.1,1.1-4.1,3-5.1s4.1-1,5.8,0.1l46.6,29
		c1.7,1.1,2.7,3,2.7,5S134,103.7,132.2,104.8z"/>
</g>
</svg>
